<svg class="main-svg" xmlns="http://www.w3.org/2000/svg" xmlns:xlink="http://www.w3.org/1999/xlink" width="700" height="450" style="" viewBox="0 0 700 450"><rect x="0" y="0" width="700" height="450" style="fill: rgb(255, 255, 255); fill-opacity: 1;"/><defs id="defs-86ca53"><g class="clips"><clipPath id="clip86ca53xyplot" class="plotclip"><rect width="490" height="330"/></clipPath><clipPath class="axesclip" id="clip86ca53x"><rect x="60" y="0" width="490" height="450"/></clipPath><clipPath class="axesclip" id="clip86ca53y"><rect x="0" y="60" width="700" height="330"/></clipPath><clipPath class="axesclip" id="clip86ca53xy"><rect x="60" y="60" width="490" height="330"/></clipPath></g><g class="gradients"/></defs><g class="bglayer"><rect class="bg" x="60" y="60" width="490" height="330" style="fill: rgb(255, 255, 255); fill-opacity: 1; stroke-width: 0;"/></g><g class="layer-below"><g class="imagelayer"/><g class="shapelayer"/></g><g class="cartesianlayer"><g class="subplot xy"><g class="layer-subplot"><g class="shapelayer"/><g class="imagelayer"/></g><g class="gridlayer"><g class="x"><path class="xgrid crisp" d="M0,60v330" transform="translate(185.81,0)" style="stroke: rgb(238, 238, 238); stroke-opacity: 1; stroke-width: 1px;"/><path class="xgrid crisp" d="M0,60v330" transform="translate(318.24,0)" style="stroke: rgb(238, 238, 238); stroke-opacity: 1; stroke-width: 1px;"/><path class="xgrid crisp" d="M0,60v330" transform="translate(450.68,0)" style="stroke: rgb(238, 238, 238); stroke-opacity: 1; stroke-width: 1px;"/></g><g class="y"><path class="ygrid crisp" d="M60,0h490" transform="translate(0,346.49)" style="stroke: rgb(238, 238, 238); stroke-opacity: 1; stroke-width: 1px;"/><path class="ygrid crisp" d="M60,0h490" transform="translate(0,290.1)" style="stroke: rgb(238, 238, 238); stroke-opacity: 1; stroke-width: 1px;"/><path class="ygrid crisp" d="M60,0h490" transform="translate(0,233.71)" style="stroke: rgb(238, 238, 238); stroke-opacity: 1; stroke-width: 1px;"/><path class="ygrid crisp" d="M60,0h490" transform="translate(0,177.32)" style="stroke: rgb(238, 238, 238); stroke-opacity: 1; stroke-width: 1px;"/><path class="ygrid crisp" d="M60,0h490" transform="translate(0,120.93)" style="stroke: rgb(238, 238, 238); stroke-opacity: 1; stroke-width: 1px;"/><path class="ygrid crisp" d="M60,0h490" transform="translate(0,64.55)" style="stroke: rgb(238, 238, 238); stroke-opacity: 1; stroke-width: 1px;"/></g></g><g class="zerolinelayer"/><path class="xlines-below"/><path class="ylines-below"/><g class="overlines-below"/><g class="xaxislayer-below"/><g class="yaxislayer-below"/><g class="overaxes-below"/><g class="plot" transform="translate(60, 60)" clip-path="url(#clip86ca53xyplot)"><g class="scatterlayer mlayer"><g class="trace scatter tracefc0442" style="stroke-miterlimit: 2; opacity: 1;"><path class="js-line" d="M0,313.5L6.62,262.07L13.24,224.41L19.86,202.41L26.49,174.28L33.11,134.07L39.73,118.06L52.97,94.77L59.59,89.07L66.22,79.32L72.84,77.34L79.46,65.73L86.08,56.65L92.7,65.28L99.32,59.19L105.95,49.83L112.57,53.04L119.19,54.11L125.81,47.63L132.43,36.74L139.05,36.91L145.68,42.44L152.3,39.11L158.92,34.38L165.54,40.92L172.16,28.12L178.78,36.01L185.41,31.44L192.03,33.59L198.65,23.55L205.27,25.92L211.89,20.73L218.51,28.34L225.14,26.65L231.76,32.23L238.38,19.83L245,25.86L251.62,26.93L258.24,27.16L264.86,26.03L271.49,28.62L278.11,24.85L284.73,27.44L291.35,19.71L297.97,22.7L304.59,20.95L311.22,22.59L317.84,26.09L324.46,27.66L331.08,23.77L337.7,21.97L344.32,21.46L350.95,19.66L357.57,19.88L364.19,21.97L377.43,23.38L384.05,21.12L390.68,22.25L397.3,19.77L403.92,23.55L410.54,20.17L417.16,22.65L423.78,20.95L430.41,19.71L437.03,23.55L443.65,21.41L450.27,20.17L456.89,22.31L463.51,18.53L470.14,16.5L476.76,18.59L483.38,16.61L490,21.12" style="vector-effect: non-scaling-stroke; fill: none; stroke: rgb(31, 119, 180); stroke-opacity: 1; stroke-width: 2px; opacity: 1;"/><g class="points"/></g><g class="trace scatter tracef98257" style="stroke-miterlimit: 2; opacity: 1;"><path class="js-line" d="M0,298.67L6.62,248.48L13.24,207.21L19.86,170.84L26.49,149.01L33.11,137.23L39.73,112.81L46.35,118.96L52.97,94.03L59.59,77.85L66.22,79.88L72.84,70.41L79.46,67.36L86.08,62.74L92.7,64.88L99.32,74.75L105.95,56.76L112.57,47.23L119.19,58.9L125.81,50.22L132.43,50.5L139.05,45.09L145.68,51.74L152.3,42.83L158.92,46.05L165.54,43.51L172.16,39.9L178.78,34.66L185.41,43.4L198.65,35.95L205.27,35.5L211.89,39.11L218.51,35.78L225.14,38.77L231.76,33.98L238.38,37.59L245,31.78L251.62,33.19L258.24,33.59L264.86,33.64L271.49,35.9L284.73,34.09L291.35,35.62L297.97,39.22L304.59,37.53L311.22,37.53L317.84,33.36L324.46,30.54L331.08,33.87L337.7,32.97L344.32,33.53L350.95,29.58L357.57,28.96L364.19,31.61L370.81,29.41L377.43,31.22L384.05,31.1L390.68,27.5L397.3,32.18L410.54,30.54L417.16,27.66L430.41,28.57L437.03,30.2L443.65,27.83L450.27,27.16L456.89,32.29L463.51,25.63L470.14,32.01L476.76,25.8L483.38,26.03L490,28.91" style="vector-effect: non-scaling-stroke; fill: none; stroke: rgb(255, 127, 14); stroke-opacity: 1; stroke-width: 2px; opacity: 1;"/><g class="points"/></g></g></g><g class="overplot"/><path class="xlines-above crisp" d="M0,0" style="fill: none;"/><path class="ylines-above crisp" d="M0,0" style="fill: none;"/><g class="overlines-above"/><g class="xaxislayer-above"><g class="xtick"><text text-anchor="middle" x="0" y="403" transform="translate(185.81,0)" style="font-family: 'Open Sans', verdana, arial, sans-serif; font-size: 12px; fill: rgb(68, 68, 68); fill-opacity: 1; white-space: pre;">20</text></g><g class="xtick"><text text-anchor="middle" x="0" y="403" transform="translate(318.24,0)" style="font-family: 'Open Sans', verdana, arial, sans-serif; font-size: 12px; fill: rgb(68, 68, 68); fill-opacity: 1; white-space: pre;">40</text></g><g class="xtick"><text text-anchor="middle" x="0" y="403" transform="translate(450.68,0)" style="font-family: 'Open Sans', verdana, arial, sans-serif; font-size: 12px; fill: rgb(68, 68, 68); fill-opacity: 1; white-space: pre;">60</text></g></g><g class="yaxislayer-above"><g class="ytick"><text text-anchor="end" x="59" y="4.199999999999999" transform="translate(0,346.49)" style="font-family: 'Open Sans', verdana, arial, sans-serif; font-size: 12px; fill: rgb(68, 68, 68); fill-opacity: 1; white-space: pre;">20</text></g><g class="ytick"><text text-anchor="end" x="59" y="4.199999999999999" transform="translate(0,290.1)" style="font-family: 'Open Sans', verdana, arial, sans-serif; font-size: 12px; fill: rgb(68, 68, 68); fill-opacity: 1; white-space: pre;">30</text></g><g class="ytick"><text text-anchor="end" x="59" y="4.199999999999999" transform="translate(0,233.71)" style="font-family: 'Open Sans', verdana, arial, sans-serif; font-size: 12px; fill: rgb(68, 68, 68); fill-opacity: 1; white-space: pre;">40</text></g><g class="ytick"><text text-anchor="end" x="59" y="4.199999999999999" transform="translate(0,177.32)" style="font-family: 'Open Sans', verdana, arial, sans-serif; font-size: 12px; fill: rgb(68, 68, 68); fill-opacity: 1; white-space: pre;">50</text></g><g class="ytick"><text text-anchor="end" x="59" y="4.199999999999999" transform="translate(0,120.93)" style="font-family: 'Open Sans', verdana, arial, sans-serif; font-size: 12px; fill: rgb(68, 68, 68); fill-opacity: 1; white-space: pre;">60</text></g><g class="ytick"><text text-anchor="end" x="59" y="4.199999999999999" transform="translate(0,64.55)" style="font-family: 'Open Sans', verdana, arial, sans-serif; font-size: 12px; fill: rgb(68, 68, 68); fill-opacity: 1; white-space: pre;">70</text></g></g><g class="overaxes-above"/></g></g><g class="polarlayer"/><g class="ternarylayer"/><g class="geolayer"/><g class="pielayer"/><g class="glimages"/><defs id="topdefs-86ca53"><g class="clips"/><clipPath id="legend86ca53"><rect width="128" height="48" x="0" y="0"/></clipPath></defs><g class="layer-above"><g class="imagelayer"/><g class="shapelayer"/></g><g class="infolayer"><g class="legend" pointer-events="all" transform="translate(559.8, 60)"><rect class="bg" shape-rendering="crispEdges" width="128" height="48" x="0" y="0" style="stroke: rgb(68, 68, 68); stroke-opacity: 1; fill: rgb(255, 255, 255); fill-opacity: 1; stroke-width: 0px;"/><g class="scrollbox" transform="translate(0, 0)" clip-path="url(#legend86ca53)"><g class="groups"><g class="traces" transform="translate(0, 14.5)" style="opacity: 1;"><g class="layers" style="opacity: 1;"><g class="legendfill"/><g class="legendlines"><path class="js-line" d="M5,0h30" style="fill: none; stroke: rgb(31, 119, 180); stroke-opacity: 1; stroke-width: 2px;"/></g><g class="legendsymbols"><g class="legendpoints"/></g></g><text class="legendtext user-select-none" text-anchor="start" x="40" y="4.680000000000001" style="font-family: 'Open Sans', verdana, arial, sans-serif; font-size: 12px; fill: rgb(68, 68, 68); fill-opacity: 1; white-space: pre;">se_resnet164</text><rect class="legendtoggle" pointer-events="all" x="0" y="-9.5" width="168" height="19" style="cursor: pointer; fill: rgb(0, 0, 0); fill-opacity: 0;"/></g><g class="traces" transform="translate(0, 33.5)" style="opacity: 1;"><g class="layers" style="opacity: 1;"><g class="legendfill"/><g class="legendlines"><path class="js-line" d="M5,0h30" style="fill: none; stroke: rgb(255, 127, 14); stroke-opacity: 1; stroke-width: 2px;"/></g><g class="legendsymbols"><g class="legendpoints"/></g></g><text class="legendtext user-select-none" text-anchor="start" x="40" y="4.680000000000001" style="font-family: 'Open Sans', verdana, arial, sans-serif; font-size: 12px; fill: rgb(68, 68, 68); fill-opacity: 1; white-space: pre;">resnet164</text><rect class="legendtoggle" pointer-events="all" x="0" y="-9.5" width="168" height="19" style="cursor: pointer; fill: rgb(0, 0, 0); fill-opacity: 0;"/></g></g></g><rect class="scrollbar" rx="20" ry="3" width="0" height="0" x="0" y="0" style="fill: rgb(128, 139, 164); fill-opacity: 1;"/></g><g class="g-gtitle"/><g class="g-xtitle"/><g class="g-ytitle"/></g></svg>